<svg xmlns="http://www.w3.org/2000/svg" xmlns:xlink="http://www.w3.org/1999/xlink" width="250" zoomAndPan="magnify" viewBox="0 0 375 131.249995" height="88" preserveAspectRatio="xMidYMid meet" version="1.0"><defs><g/><clipPath id="id1"><path d="M 10.242188 6.246094 L 126.515625 6.246094 L 126.515625 123.328125 L 10.242188 123.328125 Z M 10.242188 6.246094 " clip-rule="nonzero"/></clipPath><clipPath id="id2"><path d="M 72.613281 6.433594 C 42.109375 4.011719 15.246094 25.464844 10.289062 55.101562 C 23.058594 30.0625 51.816406 20.511719 51.816406 20.511719 C 51.34375 20.695312 51.066406 20.820312 49.367188 21.851562 C 36.621094 29.824219 24.042969 40.910156 15.882812 52.882812 C 10.707031 60.472656 8.960938 69.917969 11.148438 78.839844 C 11.160156 78.886719 11.171875 78.933594 11.183594 78.980469 C 15.710938 59.632812 34.683594 42.332031 53.273438 27.566406 L 49.25 25.292969 L 68.320312 21.773438 L 59.363281 38.996094 L 58.300781 34.160156 C 44.191406 46.296875 29.574219 60.238281 21.992188 74.257812 C 21.117188 75.875 20.265625 77.597656 19.484375 79.394531 C 16.25 86.832031 17.445312 95.480469 22.546875 101.78125 C 22.574219 101.8125 22.597656 101.84375 22.625 101.875 C 25.019531 78.472656 55.136719 52.011719 70.445312 38.613281 L 63.886719 35.414062 L 92.863281 28.214844 L 80.710938 55.527344 L 78.703125 48.453125 C 59.425781 66.722656 43.1875 82.996094 35.53125 96.660156 C 31.382812 104.066406 34.199219 113.46875 41.78125 117.273438 C 41.820312 117.292969 41.859375 117.3125 41.898438 117.332031 C 41.839844 116.84375 41.800781 116.34375 41.777344 115.832031 C 41.605469 111.320312 41.148438 99.332031 75.308594 68.203125 C 84.484375 59.84375 90.558594 54.308594 94.632812 50.582031 L 87.65625 46.46875 L 119.941406 41.113281 L 104.304688 69.902344 L 102.78125 62.304688 C 101.726562 63.191406 100.480469 64.222656 98.980469 65.460938 C 83.675781 77.828125 62.714844 94.765625 54.484375 110.40625 C 54.460938 110.445312 54.441406 110.488281 54.417969 110.53125 C 51.644531 115.867188 55.078125 122.339844 61.042969 123.050781 C 61.867188 123.148438 62.699219 123.230469 63.539062 123.292969 C 63.707031 123.308594 63.875 123.320312 64.039062 123.328125 C 61.292969 120.96875 60.996094 116.664062 64.742188 110.40625 C 71.355469 99.355469 86.605469 87.078125 97.5 78.808594 C 82.023438 95.171875 73.5 104.1875 69.597656 112.652344 C 69.570312 112.714844 69.539062 112.78125 69.511719 112.84375 C 67.199219 117.957031 71.453125 123.640625 76.992188 122.777344 C 103.25 118.707031 124.226562 96.992188 126.332031 69.316406 C 128.789062 37.066406 104.804688 8.988281 72.613281 6.433594 Z M 72.613281 6.433594 " clip-rule="nonzero"/></clipPath><clipPath id="id3"><path d="M 72.613281 6.433594 C 42.109375 4.011719 15.246094 25.464844 10.289062 55.101562 C 23.058594 30.0625 51.816406 20.511719 51.816406 20.511719 C 51.34375 20.695312 51.066406 20.820312 49.367188 21.851562 C 36.621094 29.824219 24.042969 40.910156 15.882812 52.882812 C 10.707031 60.472656 8.960938 69.917969 11.148438 78.839844 C 11.160156 78.886719 11.171875 78.933594 11.183594 78.980469 C 15.710938 59.632812 34.683594 42.332031 53.273438 27.566406 L 49.25 25.292969 L 68.320312 21.773438 L 59.363281 38.996094 L 58.300781 34.160156 C 44.191406 46.296875 29.574219 60.238281 21.992188 74.257812 C 21.117188 75.875 20.265625 77.597656 19.484375 79.394531 C 16.25 86.832031 17.445312 95.480469 22.546875 101.78125 C 22.574219 101.8125 22.597656 101.84375 22.625 101.875 C 25.019531 78.472656 55.136719 52.011719 70.445312 38.613281 L 63.886719 35.414062 L 92.863281 28.214844 L 80.710938 55.527344 L 78.703125 48.453125 C 59.425781 66.722656 43.1875 82.996094 35.53125 96.660156 C 31.382812 104.066406 34.199219 113.46875 41.78125 117.273438 C 41.820312 117.292969 41.859375 117.3125 41.898438 117.332031 C 41.839844 116.84375 41.800781 116.34375 41.777344 115.832031 C 41.605469 111.320312 41.148438 99.332031 75.308594 68.203125 C 84.484375 59.84375 90.558594 54.308594 94.632812 50.582031 L 87.65625 46.46875 L 119.941406 41.113281 L 104.304688 69.902344 L 102.78125 62.304688 C 101.726562 63.191406 100.480469 64.222656 98.980469 65.460938 C 83.675781 77.828125 62.714844 94.765625 54.484375 110.40625 C 54.460938 110.445312 54.441406 110.488281 54.417969 110.53125 C 51.644531 115.867188 55.078125 122.339844 61.042969 123.050781 C 61.867188 123.148438 62.699219 123.230469 63.539062 123.292969 C 63.707031 123.308594 63.875 123.320312 64.039062 123.328125 C 61.292969 120.96875 60.996094 116.664062 64.742188 110.40625 C 71.355469 99.355469 86.605469 87.078125 97.5 78.808594 C 82.023438 95.171875 73.5 104.1875 69.597656 112.652344 C 69.570312 112.714844 69.539062 112.78125 69.511719 112.84375 C 67.199219 117.957031 71.453125 123.640625 76.992188 122.777344 C 103.25 118.707031 124.226562 96.992188 126.332031 69.316406 C 128.789062 37.066406 104.804688 8.988281 72.613281 6.433594 " clip-rule="nonzero"/></clipPath><radialGradient gradientTransform="matrix(0.000000000000000061, 1.0008, -0.9992, 0.000000000000000061, 72.204111, 4.90292)" gradientUnits="userSpaceOnUse" r="122.111495" cx="0" id="id4" cy="0" fx="0" fy="0"><stop stop-opacity="1" stop-color="rgb(31.604004%, 67.652893%, 89.7995%)" offset="0"/><stop stop-opacity="1" stop-color="rgb(31.404114%, 67.501831%, 89.608765%)" offset="0.00390625"/><stop stop-opacity="1" stop-color="rgb(31.399536%, 67.312622%, 89.408875%)" offset="0.0078125"/><stop stop-opacity="1" stop-color="rgb(31.217957%, 67.112732%, 89.399719%)" offset="0.0117188"/><stop stop-opacity="1" stop-color="rgb(31.018066%, 66.921997%, 89.222717%)" offset="0.015625"/><stop stop-opacity="1" stop-color="rgb(30.999756%, 66.522217%, 88.999939%)" offset="0.0195312"/><stop stop-opacity="1" stop-color="rgb(30.999756%, 66.281128%, 88.777161%)" offset="0.0234375"/><stop stop-opacity="1" stop-color="rgb(30.999756%, 66.069031%, 88.586426%)" offset="0.0273438"/><stop stop-opacity="1" stop-color="rgb(30.990601%, 65.686035%, 88.386536%)" offset="0.03125"/><stop stop-opacity="1" stop-color="rgb(30.79071%, 65.4953%, 88.198853%)" offset="0.0351562"/><stop stop-opacity="1" stop-color="rgb(30.599976%, 65.296936%, 88.198853%)" offset="0.0390625"/><stop stop-opacity="1" stop-color="rgb(30.599976%, 65.100098%, 88.005066%)" offset="0.0429688"/><stop stop-opacity="1" stop-color="rgb(30.599976%, 64.909363%, 87.805176%)" offset="0.046875"/><stop stop-opacity="1" stop-color="rgb(30.599976%, 64.709473%, 87.799072%)" offset="0.0507812"/><stop stop-opacity="1" stop-color="rgb(30.599976%, 64.518738%, 87.663269%)" offset="0.0546875"/><stop stop-opacity="1" stop-color="rgb(30.4245%, 64.318848%, 87.513733%)" offset="0.0585938"/><stop stop-opacity="1" stop-color="rgb(30.223083%, 64.099121%, 87.478638%)" offset="0.0625"/><stop stop-opacity="1" stop-color="rgb(30.183411%, 63.883972%, 87.278748%)" offset="0.0664062"/><stop stop-opacity="1" stop-color="rgb(29.983521%, 63.673401%, 87.098694%)" offset="0.0703125"/><stop stop-opacity="1" stop-color="rgb(29.798889%, 63.288879%, 87.09259%)" offset="0.0742188"/><stop stop-opacity="1" stop-color="rgb(29.798889%, 63.098145%, 86.8927%)" offset="0.078125"/><stop stop-opacity="1" stop-color="rgb(29.798889%, 62.901306%, 86.698914%)" offset="0.0820312"/><stop stop-opacity="1" stop-color="rgb(29.798889%, 62.557983%, 86.698914%)" offset="0.0859375"/><stop stop-opacity="1" stop-color="rgb(29.611206%, 62.405396%, 86.51123%)" offset="0.0898438"/><stop stop-opacity="1" stop-color="rgb(29.411316%, 62.216187%, 86.31134%)" offset="0.09375"/><stop stop-opacity="1" stop-color="rgb(29.399109%, 62.016296%, 86.299133%)" offset="0.0976562"/><stop stop-opacity="1" stop-color="rgb(29.399109%, 61.799622%, 86.099243%)" offset="0.101562"/><stop stop-opacity="1" stop-color="rgb(29.399109%, 61.579895%, 85.899353%)" offset="0.105469"/><stop stop-opacity="1" stop-color="rgb(29.399109%, 61.380005%, 85.884094%)" offset="0.109375"/><stop stop-opacity="1" stop-color="rgb(29.389954%, 61.18927%, 85.684204%)" offset="0.113281"/><stop stop-opacity="1" stop-color="rgb(29.190063%, 60.98938%, 85.494995%)" offset="0.117188"/><stop stop-opacity="1" stop-color="rgb(28.999329%, 60.798645%, 85.295105%)" offset="0.121094"/><stop stop-opacity="1" stop-color="rgb(28.999329%, 60.603333%, 85.099792%)" offset="0.125"/><stop stop-opacity="1" stop-color="rgb(28.999329%, 60.403442%, 85.099792%)" offset="0.128906"/><stop stop-opacity="1" stop-color="rgb(28.999329%, 60.212708%, 84.913635%)" offset="0.132812"/><stop stop-opacity="1" stop-color="rgb(28.999329%, 60.012817%, 84.712219%)" offset="0.136719"/><stop stop-opacity="1" stop-color="rgb(28.822327%, 59.822083%, 84.698486%)" offset="0.140625"/><stop stop-opacity="1" stop-color="rgb(28.622437%, 59.422302%, 84.498596%)" offset="0.144531"/><stop stop-opacity="1" stop-color="rgb(28.581238%, 59.181213%, 84.281921%)" offset="0.148438"/><stop stop-opacity="1" stop-color="rgb(28.381348%, 58.969116%, 84.082031%)" offset="0.152344"/><stop stop-opacity="1" stop-color="rgb(28.199768%, 58.586121%, 83.898926%)" offset="0.15625"/><stop stop-opacity="1" stop-color="rgb(28.199768%, 58.395386%, 83.898926%)" offset="0.160156"/><stop stop-opacity="1" stop-color="rgb(28.199768%, 58.197021%, 83.898926%)" offset="0.164062"/><stop stop-opacity="1" stop-color="rgb(28.199768%, 58.000183%, 83.705139%)" offset="0.167969"/><stop stop-opacity="1" stop-color="rgb(28.199768%, 57.809448%, 83.505249%)" offset="0.171875"/><stop stop-opacity="1" stop-color="rgb(28.015137%, 57.609558%, 83.499146%)" offset="0.175781"/><stop stop-opacity="1" stop-color="rgb(27.815247%, 57.4646%, 83.319092%)" offset="0.179688"/><stop stop-opacity="1" stop-color="rgb(27.799988%, 57.315063%, 83.119202%)" offset="0.183594"/><stop stop-opacity="1" stop-color="rgb(27.799988%, 57.098389%, 83.078003%)" offset="0.1875"/><stop stop-opacity="1" stop-color="rgb(27.799988%, 56.898499%, 82.878113%)" offset="0.191406"/><stop stop-opacity="1" stop-color="rgb(27.799988%, 56.887817%, 82.69043%)" offset="0.195312"/><stop stop-opacity="1" stop-color="rgb(27.799988%, 56.681824%, 82.540894%)" offset="0.199219"/><stop stop-opacity="1" stop-color="rgb(27.798462%, 56.292725%, 82.398987%)" offset="0.203125"/><stop stop-opacity="1" stop-color="rgb(27.650452%, 56.098938%, 82.398987%)" offset="0.207031"/><stop stop-opacity="1" stop-color="rgb(27.500916%, 55.906677%, 82.206726%)" offset="0.210938"/><stop stop-opacity="1" stop-color="rgb(27.49939%, 55.706787%, 82.006836%)" offset="0.214844"/><stop stop-opacity="1" stop-color="rgb(27.49939%, 55.516052%, 81.816101%)" offset="0.21875"/><stop stop-opacity="1" stop-color="rgb(27.49939%, 55.137634%, 81.616211%)" offset="0.222656"/><stop stop-opacity="1" stop-color="rgb(27.2995%, 54.896545%, 81.599426%)" offset="0.226562"/><stop stop-opacity="1" stop-color="rgb(27.099609%, 54.675293%, 81.57959%)" offset="0.230469"/><stop stop-opacity="1" stop-color="rgb(27.084351%, 54.484558%, 81.3797%)" offset="0.234375"/><stop stop-opacity="1" stop-color="rgb(26.88446%, 54.284668%, 81.199646%)" offset="0.238281"/><stop stop-opacity="1" stop-color="rgb(26.699829%, 54.093933%, 81.195068%)" offset="0.242188"/><stop stop-opacity="1" stop-color="rgb(26.699829%, 53.894043%, 80.995178%)" offset="0.246094"/><stop stop-opacity="1" stop-color="rgb(26.699829%, 53.69873%, 80.799866%)" offset="0.25"/><stop stop-opacity="1" stop-color="rgb(26.699829%, 53.507996%, 80.799866%)" offset="0.253906"/><stop stop-opacity="1" stop-color="rgb(26.699829%, 53.308105%, 80.618286%)" offset="0.257812"/><stop stop-opacity="1" stop-color="rgb(26.699829%, 53.121948%, 80.41687%)" offset="0.265625"/><stop stop-opacity="1" stop-color="rgb(26.498413%, 52.722168%, 80.198669%)" offset="0.269531"/><stop stop-opacity="1" stop-color="rgb(26.298523%, 52.485657%, 79.981995%)" offset="0.273438"/><stop stop-opacity="1" stop-color="rgb(26.298523%, 52.328491%, 79.782104%)" offset="0.277344"/><stop stop-opacity="1" stop-color="rgb(26.295471%, 51.991272%, 79.595947%)" offset="0.285156"/><stop stop-opacity="1" stop-color="rgb(26.097107%, 51.799011%, 79.397583%)" offset="0.289062"/><stop stop-opacity="1" stop-color="rgb(25.900269%, 51.605225%, 79.200745%)" offset="0.292969"/><stop stop-opacity="1" stop-color="rgb(25.898743%, 51.220703%, 79.014587%)" offset="0.296875"/><stop stop-opacity="1" stop-color="rgb(25.718689%, 51.014709%, 78.814697%)" offset="0.304688"/><stop stop-opacity="1" stop-color="rgb(25.518799%, 50.823975%, 78.799438%)" offset="0.308594"/><stop stop-opacity="1" stop-color="rgb(25.498962%, 50.602722%, 78.778076%)" offset="0.3125"/><stop stop-opacity="1" stop-color="rgb(25.498962%, 50.367737%, 78.578186%)" offset="0.316406"/><stop stop-opacity="1" stop-color="rgb(25.498962%, 49.987793%, 78.393555%)" offset="0.324219"/><stop stop-opacity="1" stop-color="rgb(25.498962%, 49.797058%, 78.193665%)" offset="0.328125"/><stop stop-opacity="1" stop-color="rgb(25.498962%, 49.60022%, 77.999878%)" offset="0.332031"/><stop stop-opacity="1" stop-color="rgb(25.306702%, 49.401855%, 77.999878%)" offset="0.335938"/><stop stop-opacity="1" stop-color="rgb(25.106812%, 49.211121%, 77.999878%)" offset="0.339844"/><stop stop-opacity="1" stop-color="rgb(25.099182%, 49.01123%, 77.816772%)" offset="0.34375"/><stop stop-opacity="1" stop-color="rgb(25.099182%, 48.820496%, 77.615356%)" offset="0.347656"/><stop stop-opacity="1" stop-color="rgb(25.099182%, 48.597717%, 77.449036%)" offset="0.351562"/><stop stop-opacity="1" stop-color="rgb(25.099182%, 48.374939%, 77.279663%)" offset="0.355469"/><stop stop-opacity="1" stop-color="rgb(25.099182%, 48.184204%, 77.079773%)" offset="0.359375"/><stop stop-opacity="1" stop-color="rgb(25.090027%, 47.984314%, 76.899719%)" offset="0.363281"/><stop stop-opacity="1" stop-color="rgb(24.890137%, 47.795105%, 76.895142%)" offset="0.367188"/><stop stop-opacity="1" stop-color="rgb(24.699402%, 47.645569%, 76.695251%)" offset="0.371094"/><stop stop-opacity="1" stop-color="rgb(24.508667%, 47.30835%, 76.499939%)" offset="0.378906"/><stop stop-opacity="1" stop-color="rgb(24.308777%, 46.92688%, 76.318359%)" offset="0.382812"/><stop stop-opacity="1" stop-color="rgb(24.299622%, 46.717834%, 76.116943%)" offset="0.390625"/><stop stop-opacity="1" stop-color="rgb(24.299622%, 46.499634%, 76.077271%)" offset="0.394531"/><stop stop-opacity="1" stop-color="rgb(24.299622%, 46.286011%, 75.87738%)" offset="0.398438"/><stop stop-opacity="1" stop-color="rgb(24.299622%, 46.086121%, 75.691223%)" offset="0.40625"/><stop stop-opacity="1" stop-color="rgb(24.29657%, 45.895386%, 75.491333%)" offset="0.410156"/><stop stop-opacity="1" stop-color="rgb(24.098206%, 45.697021%, 75.299072%)" offset="0.414062"/><stop stop-opacity="1" stop-color="rgb(23.901367%, 45.306396%, 75.299072%)" offset="0.417969"/><stop stop-opacity="1" stop-color="rgb(23.899841%, 45.10498%, 75.109863%)" offset="0.421875"/><stop stop-opacity="1" stop-color="rgb(23.899841%, 44.914246%, 74.909973%)" offset="0.425781"/><stop stop-opacity="1" stop-color="rgb(23.899841%, 44.540405%, 74.723816%)" offset="0.429688"/><stop stop-opacity="1" stop-color="rgb(23.899841%, 44.32373%, 74.504089%)" offset="0.4375"/><stop stop-opacity="1" stop-color="rgb(23.883057%, 44.282532%, 74.278259%)" offset="0.441406"/><stop stop-opacity="1" stop-color="rgb(23.683167%, 44.076538%, 74.099731%)" offset="0.445312"/><stop stop-opacity="1" stop-color="rgb(23.497009%, 43.693542%, 74.098206%)" offset="0.453125"/><stop stop-opacity="1" stop-color="rgb(23.300171%, 43.499756%, 73.901367%)" offset="0.457031"/><stop stop-opacity="1" stop-color="rgb(23.101807%, 43.307495%, 73.703003%)" offset="0.460938"/><stop stop-opacity="1" stop-color="rgb(23.098755%, 43.107605%, 73.516846%)" offset="0.464844"/><stop stop-opacity="1" stop-color="rgb(23.098755%, 42.921448%, 73.31543%)" offset="0.472656"/><stop stop-opacity="1" stop-color="rgb(23.098755%, 42.570496%, 73.275757%)" offset="0.476562"/><stop stop-opacity="1" stop-color="rgb(23.098755%, 42.379761%, 73.075867%)" offset="0.480469"/><stop stop-opacity="1" stop-color="rgb(23.098755%, 42.170715%, 72.889709%)" offset="0.484375"/><stop stop-opacity="1" stop-color="rgb(23.094177%, 41.789246%, 72.689819%)" offset="0.492188"/><stop stop-opacity="1" stop-color="rgb(22.894287%, 41.598511%, 72.499084%)" offset="0.496094"/><stop stop-opacity="1" stop-color="rgb(22.698975%, 41.407776%, 72.499084%)" offset="0.503906"/><stop stop-opacity="1" stop-color="rgb(22.698975%, 41.207886%, 72.358704%)" offset="0.507812"/><stop stop-opacity="1" stop-color="rgb(22.698975%, 41.017151%, 72.209167%)" offset="0.511719"/><stop stop-opacity="1" stop-color="rgb(22.566223%, 40.817261%, 72.021484%)" offset="0.515625"/><stop stop-opacity="1" stop-color="rgb(22.416687%, 40.59906%, 71.821594%)" offset="0.519531"/><stop stop-opacity="1" stop-color="rgb(22.399902%, 40.39917%, 71.781921%)" offset="0.523438"/><stop stop-opacity="1" stop-color="rgb(22.399902%, 40.386963%, 71.582031%)" offset="0.527344"/><stop stop-opacity="1" stop-color="rgb(22.399902%, 40.187073%, 71.398926%)" offset="0.53125"/><stop stop-opacity="1" stop-color="rgb(22.399902%, 39.996338%, 71.398926%)" offset="0.535156"/><stop stop-opacity="1" stop-color="rgb(22.399902%, 39.797974%, 71.398926%)" offset="0.539062"/><stop stop-opacity="1" stop-color="rgb(22.206116%, 39.601135%, 71.205139%)" offset="0.542969"/><stop stop-opacity="1" stop-color="rgb(22.0047%, 39.4104%, 71.005249%)" offset="0.546875"/><stop stop-opacity="1" stop-color="rgb(21.998596%, 39.21051%, 70.814514%)" offset="0.550781"/><stop stop-opacity="1" stop-color="rgb(21.998596%, 39.019775%, 70.614624%)" offset="0.554688"/><stop stop-opacity="1" stop-color="rgb(21.998596%, 38.818359%, 70.599365%)" offset="0.558594"/><stop stop-opacity="1" stop-color="rgb(21.998596%, 38.598633%, 70.578003%)" offset="0.5625"/><stop stop-opacity="1" stop-color="rgb(21.998596%, 38.383484%, 70.378113%)" offset="0.566406"/><stop stop-opacity="1" stop-color="rgb(21.99707%, 38.182068%, 70.198059%)" offset="0.570312"/><stop stop-opacity="1" stop-color="rgb(21.800232%, 37.800598%, 70.001221%)" offset="0.582031"/><stop stop-opacity="1" stop-color="rgb(21.601868%, 37.451172%, 69.619751%)" offset="0.585938"/><stop stop-opacity="1" stop-color="rgb(21.420288%, 37.298584%, 69.415283%)" offset="0.597656"/><stop stop-opacity="1" stop-color="rgb(21.220398%, 37.098694%, 69.198608%)" offset="0.601562"/><stop stop-opacity="1" stop-color="rgb(21.199036%, 36.880493%, 68.998718%)" offset="0.605469"/><stop stop-opacity="1" stop-color="rgb(21.199036%, 36.680603%, 68.984985%)" offset="0.609375"/><stop stop-opacity="1" stop-color="rgb(21.199036%, 36.489868%, 68.785095%)" offset="0.613281"/><stop stop-opacity="1" stop-color="rgb(21.199036%, 36.289978%, 68.598938%)" offset="0.617188"/><stop stop-opacity="1" stop-color="rgb(21.199036%, 36.099243%, 68.598938%)" offset="0.621094"/><stop stop-opacity="1" stop-color="rgb(21.199036%, 35.903931%, 68.403625%)" offset="0.625"/><stop stop-opacity="1" stop-color="rgb(21.199036%, 35.704041%, 68.203735%)" offset="0.628906"/><stop stop-opacity="1" stop-color="rgb(21.199036%, 35.517883%, 68.199158%)" offset="0.636719"/><stop stop-opacity="1" stop-color="rgb(21.022034%, 35.317993%, 68.022156%)" offset="0.640625"/><stop stop-opacity="1" stop-color="rgb(20.822144%, 35.099792%, 67.822266%)" offset="0.644531"/><stop stop-opacity="1" stop-color="rgb(20.799255%, 34.886169%, 67.790222%)" offset="0.648438"/><stop stop-opacity="1" stop-color="rgb(20.799255%, 34.683228%, 67.63916%)" offset="0.65625"/><stop stop-opacity="1" stop-color="rgb(20.799255%, 34.29718%, 67.498779%)" offset="0.664062"/><stop stop-opacity="1" stop-color="rgb(20.605469%, 34.100342%, 67.304993%)" offset="0.667969"/><stop stop-opacity="1" stop-color="rgb(20.405579%, 33.914185%, 67.105103%)" offset="0.671875"/><stop stop-opacity="1" stop-color="rgb(20.399475%, 33.714294%, 66.918945%)" offset="0.679688"/><stop stop-opacity="1" stop-color="rgb(20.399475%, 33.52356%, 66.719055%)" offset="0.683594"/><stop stop-opacity="1" stop-color="rgb(20.399475%, 33.303833%, 66.499329%)" offset="0.6875"/><stop stop-opacity="1" stop-color="rgb(20.399475%, 33.067322%, 66.299438%)" offset="0.691406"/><stop stop-opacity="1" stop-color="rgb(20.393372%, 32.688904%, 66.293335%)" offset="0.699219"/><stop stop-opacity="1" stop-color="rgb(20.193481%, 32.348633%, 66.093445%)" offset="0.703125"/><stop stop-opacity="1" stop-color="rgb(19.999695%, 32.199097%, 65.716553%)" offset="0.71875"/><stop stop-opacity="1" stop-color="rgb(19.999695%, 32.020569%, 65.516663%)" offset="0.722656"/><stop stop-opacity="1" stop-color="rgb(19.999695%, 31.797791%, 65.475464%)" offset="0.726562"/><stop stop-opacity="1" stop-color="rgb(19.979858%, 31.575012%, 65.275574%)" offset="0.730469"/><stop stop-opacity="1" stop-color="rgb(19.779968%, 31.390381%, 65.089417%)" offset="0.734375"/><stop stop-opacity="1" stop-color="rgb(19.599915%, 31.190491%, 64.889526%)" offset="0.742188"/><stop stop-opacity="1" stop-color="rgb(19.599915%, 30.804443%, 64.503479%)" offset="0.75"/><stop stop-opacity="1" stop-color="rgb(19.599915%, 30.604553%, 64.303589%)" offset="0.753906"/><stop stop-opacity="1" stop-color="rgb(19.599915%, 30.413818%, 64.299011%)" offset="0.757812"/><stop stop-opacity="1" stop-color="rgb(19.599915%, 30.212402%, 64.299011%)" offset="0.761719"/><stop stop-opacity="1" stop-color="rgb(19.599915%, 30.198669%, 64.122009%)" offset="0.765625"/><stop stop-opacity="1" stop-color="rgb(19.398499%, 29.998779%, 63.922119%)" offset="0.769531"/><stop stop-opacity="1" stop-color="rgb(19.198608%, 29.798889%, 63.899231%)" offset="0.773438"/><stop stop-opacity="1" stop-color="rgb(19.198608%, 29.786682%, 63.887024%)" offset="0.777344"/><stop stop-opacity="1" stop-color="rgb(19.198608%, 29.586792%, 63.687134%)" offset="0.78125"/><stop stop-opacity="1" stop-color="rgb(19.198608%, 29.396057%, 63.499451%)" offset="0.785156"/><stop stop-opacity="1" stop-color="rgb(19.198608%, 29.197693%, 63.499451%)" offset="0.789062"/><stop stop-opacity="1" stop-color="rgb(19.198608%, 29.000854%, 63.305664%)" offset="0.792969"/><stop stop-opacity="1" stop-color="rgb(19.198608%, 28.999329%, 63.105774%)" offset="0.796875"/><stop stop-opacity="1" stop-color="rgb(19.198608%, 28.814697%, 63.09967%)" offset="0.800781"/><stop stop-opacity="1" stop-color="rgb(19.198608%, 28.614807%, 63.09967%)" offset="0.804688"/><stop stop-opacity="1" stop-color="rgb(19.198608%, 28.599548%, 62.924194%)" offset="0.808594"/><stop stop-opacity="1" stop-color="rgb(18.998718%, 28.399658%, 62.709045%)" offset="0.8125"/><stop stop-opacity="1" stop-color="rgb(18.798828%, 28.182983%, 62.533569%)" offset="0.816406"/><stop stop-opacity="1" stop-color="rgb(18.798828%, 27.978516%, 62.393188%)" offset="0.820312"/><stop stop-opacity="1" stop-color="rgb(18.798828%, 27.644348%, 62.193298%)" offset="0.828125"/><stop stop-opacity="1" stop-color="rgb(18.798828%, 27.311707%, 61.999512%)" offset="0.835938"/><stop stop-opacity="1" stop-color="rgb(18.615723%, 27.111816%, 61.816406%)" offset="0.84375"/><stop stop-opacity="1" stop-color="rgb(18.415833%, 27.099609%, 61.616516%)" offset="0.847656"/><stop stop-opacity="1" stop-color="rgb(18.399048%, 26.899719%, 61.599731%)" offset="0.851562"/><stop stop-opacity="1" stop-color="rgb(18.399048%, 26.699829%, 61.579895%)" offset="0.855469"/><stop stop-opacity="1" stop-color="rgb(18.399048%, 26.68457%, 61.380005%)" offset="0.859375"/><stop stop-opacity="1" stop-color="rgb(18.399048%, 26.48468%, 61.193848%)" offset="0.863281"/><stop stop-opacity="1" stop-color="rgb(18.399048%, 26.10321%, 60.993958%)" offset="0.871094"/><stop stop-opacity="1" stop-color="rgb(18.399048%, 25.90332%, 60.798645%)" offset="0.878906"/><stop stop-opacity="1" stop-color="rgb(18.399048%, 25.712585%, 60.612488%)" offset="0.882812"/><stop stop-opacity="1" stop-color="rgb(18.399048%, 25.512695%, 60.412598%)" offset="0.886719"/><stop stop-opacity="1" stop-color="rgb(18.399048%, 25.498962%, 60.398865%)" offset="0.890625"/><stop stop-opacity="1" stop-color="rgb(18.199158%, 25.299072%, 60.198975%)" offset="0.894531"/><stop stop-opacity="1" stop-color="rgb(17.999268%, 25.099182%, 59.999084%)" offset="0.898438"/><stop stop-opacity="1" stop-color="rgb(17.999268%, 25.086975%, 59.986877%)" offset="0.902344"/><stop stop-opacity="1" stop-color="rgb(17.999268%, 24.887085%, 59.786987%)" offset="0.90625"/><stop stop-opacity="1" stop-color="rgb(17.999268%, 24.505615%, 59.599304%)" offset="0.917969"/><stop stop-opacity="1" stop-color="rgb(17.999268%, 24.305725%, 59.410095%)" offset="0.921875"/><stop stop-opacity="1" stop-color="rgb(17.999268%, 24.119568%, 59.210205%)" offset="0.925781"/><stop stop-opacity="1" stop-color="rgb(17.823792%, 23.919678%, 59.199524%)" offset="0.933594"/><stop stop-opacity="1" stop-color="rgb(17.623901%, 23.698425%, 58.999634%)" offset="0.9375"/><stop stop-opacity="1" stop-color="rgb(17.599487%, 23.483276%, 58.799744%)" offset="0.941406"/><stop stop-opacity="1" stop-color="rgb(17.599487%, 23.283386%, 58.787537%)" offset="0.945312"/><stop stop-opacity="1" stop-color="rgb(17.599487%, 23.098755%, 58.587646%)" offset="0.949219"/><stop stop-opacity="1" stop-color="rgb(17.599487%, 22.906494%, 58.399963%)" offset="0.960938"/><stop stop-opacity="1" stop-color="rgb(17.459106%, 22.706604%, 58.21228%)" offset="0.964844"/><stop stop-opacity="1" stop-color="rgb(17.308044%, 22.564697%, 58.010864%)" offset="0.96875"/><stop stop-opacity="1" stop-color="rgb(17.298889%, 22.415161%, 57.798767%)" offset="0.976562"/><stop stop-opacity="1" stop-color="rgb(17.298889%, 22.380066%, 57.598877%)" offset="0.980469"/><stop stop-opacity="1" stop-color="rgb(17.298889%, 22.180176%, 57.449341%)" offset="0.984375"/><stop stop-opacity="1" stop-color="rgb(17.298889%, 21.998596%, 57.299805%)" offset="1"/></radialGradient></defs><g fill="#2f4faa" fill-opacity="1"><g transform="translate(163.790329, 66.230667)"><g><path d="M 26.515625 -15.203125 L 26.515625 -9.3125 C 25.804688 -6.082031 24.269531 -3.640625 21.90625 -1.984375 C 19.539062 -0.328125 16.898438 0.5 13.984375 0.5 C 10.316406 0.5 7.191406 -0.867188 4.609375 -3.609375 C 2.035156 -6.359375 0.75 -9.671875 0.75 -13.546875 C 0.75 -17.492188 2.007812 -20.828125 4.53125 -23.546875 C 7.0625 -26.265625 10.210938 -27.625 13.984375 -27.625 C 18.390625 -27.625 21.875 -26.078125 24.4375 -22.984375 L 20.390625 -18.546875 C 18.941406 -20.867188 16.925781 -22.03125 14.34375 -22.03125 C 12.4375 -22.03125 10.804688 -21.203125 9.453125 -19.546875 C 8.109375 -17.890625 7.4375 -15.890625 7.4375 -13.546875 C 7.4375 -11.242188 8.109375 -9.273438 9.453125 -7.640625 C 10.804688 -6.015625 12.4375 -5.203125 14.34375 -5.203125 C 15.914062 -5.203125 17.289062 -5.675781 18.46875 -6.625 C 19.644531 -7.582031 20.234375 -8.847656 20.234375 -10.421875 L 13.984375 -10.421875 L 13.984375 -15.203125 Z M 26.515625 -15.203125 "/></g></g></g><g fill="#2f4faa" fill-opacity="1"><g transform="translate(192.731806, 66.230667)"><g><path d="M 8.15625 -27.140625 L 8.15625 -5.421875 L 17.5 -5.421875 L 17.5 0 L 1.96875 0 L 1.96875 -27.140625 Z M 8.15625 -27.140625 "/></g></g></g><g fill="#2f4faa" fill-opacity="1"><g transform="translate(212.991031, 66.230667)"><g><path d="M 0.75 -13.578125 C 0.75 -17.503906 2.085938 -20.828125 4.765625 -23.546875 C 7.441406 -26.265625 10.664062 -27.625 14.4375 -27.625 C 18.226562 -27.625 21.453125 -26.269531 24.109375 -23.5625 C 26.765625 -20.851562 28.09375 -17.523438 28.09375 -13.578125 C 28.09375 -9.609375 26.785156 -6.269531 24.171875 -3.5625 C 21.566406 -0.851562 18.320312 0.5 14.4375 0.5 C 10.46875 0.5 7.191406 -0.84375 4.609375 -3.53125 C 2.035156 -6.21875 0.75 -9.566406 0.75 -13.578125 Z M 7.4375 -13.578125 C 7.4375 -12.160156 7.65625 -10.863281 8.09375 -9.6875 C 8.53125 -8.507812 9.296875 -7.515625 10.390625 -6.703125 C 11.484375 -5.898438 12.832031 -5.5 14.4375 -5.5 C 16.738281 -5.5 18.472656 -6.285156 19.640625 -7.859375 C 20.816406 -9.441406 21.40625 -11.347656 21.40625 -13.578125 C 21.40625 -15.796875 20.804688 -17.695312 19.609375 -19.28125 C 18.421875 -20.875 16.695312 -21.671875 14.4375 -21.671875 C 12.195312 -21.671875 10.46875 -20.875 9.25 -19.28125 C 8.039062 -17.695312 7.4375 -15.796875 7.4375 -13.578125 Z M 7.4375 -13.578125 "/></g></g></g><g fill="#2f4faa" fill-opacity="1"><g transform="translate(243.511095, 66.230667)"><g><path d="M 1.96875 -27.140625 L 10.390625 -27.140625 C 12.929688 -27.140625 14.957031 -26.59375 16.46875 -25.5 C 17.988281 -24.414062 18.75 -22.660156 18.75 -20.234375 C 18.75 -17.515625 17.617188 -15.570312 15.359375 -14.40625 C 19.222656 -13.726562 21.15625 -11.445312 21.15625 -7.5625 C 21.15625 -5.28125 20.363281 -3.445312 18.78125 -2.0625 C 17.195312 -0.6875 15.023438 0 12.265625 0 L 1.96875 0 Z M 8.15625 -16.515625 L 8.65625 -16.515625 C 10.03125 -16.515625 11.054688 -16.753906 11.734375 -17.234375 C 12.421875 -17.710938 12.765625 -18.503906 12.765625 -19.609375 C 12.765625 -21.441406 11.394531 -22.359375 8.65625 -22.359375 L 8.15625 -22.359375 Z M 8.15625 -4.765625 L 10.09375 -4.765625 C 13.125 -4.765625 14.640625 -5.773438 14.640625 -7.796875 C 14.640625 -9.003906 14.257812 -9.867188 13.5 -10.390625 C 12.738281 -10.921875 11.601562 -11.1875 10.09375 -11.1875 L 8.15625 -11.1875 Z M 8.15625 -4.765625 "/></g></g></g><g fill="#2f4faa" fill-opacity="1"><g transform="translate(267.091941, 66.230667)"><g><path d="M 15.75 -27.140625 L 26.703125 0 L 20.0625 0 L 18.0625 -5.421875 L 7.734375 -5.421875 L 5.71875 0 L -0.921875 0 L 10.03125 -27.140625 Z M 15.953125 -10.859375 L 12.921875 -18.75 L 12.859375 -18.75 L 9.828125 -10.859375 Z M 15.953125 -10.859375 "/></g></g></g><g fill="#2f4faa" fill-opacity="1"><g transform="translate(294.553484, 66.230667)"><g><path d="M 8.15625 -27.140625 L 8.15625 -5.421875 L 17.5 -5.421875 L 17.5 0 L 1.96875 0 L 1.96875 -27.140625 Z M 8.15625 -27.140625 "/></g></g></g><g fill="#2f4faa" fill-opacity="1"><g transform="translate(129.242711, 112.134769)"><g><path d="M 26.515625 -15.203125 L 26.515625 -9.3125 C 25.804688 -6.082031 24.269531 -3.640625 21.90625 -1.984375 C 19.539062 -0.328125 16.898438 0.5 13.984375 0.5 C 10.316406 0.5 7.191406 -0.867188 4.609375 -3.609375 C 2.035156 -6.359375 0.75 -9.671875 0.75 -13.546875 C 0.75 -17.492188 2.007812 -20.828125 4.53125 -23.546875 C 7.0625 -26.265625 10.210938 -27.625 13.984375 -27.625 C 18.390625 -27.625 21.875 -26.078125 24.4375 -22.984375 L 20.390625 -18.546875 C 18.941406 -20.867188 16.925781 -22.03125 14.34375 -22.03125 C 12.4375 -22.03125 10.804688 -21.203125 9.453125 -19.546875 C 8.109375 -17.890625 7.4375 -15.890625 7.4375 -13.546875 C 7.4375 -11.242188 8.109375 -9.273438 9.453125 -7.640625 C 10.804688 -6.015625 12.4375 -5.203125 14.34375 -5.203125 C 15.914062 -5.203125 17.289062 -5.675781 18.46875 -6.625 C 19.644531 -7.582031 20.234375 -8.847656 20.234375 -10.421875 L 13.984375 -10.421875 L 13.984375 -15.203125 Z M 26.515625 -15.203125 "/></g></g></g><g fill="#2f4faa" fill-opacity="1"><g transform="translate(158.184187, 112.134769)"><g><path d="M 22.828125 -27.140625 L 22.828125 -9.640625 C 22.828125 -6.304688 21.925781 -3.78125 20.125 -2.0625 C 18.332031 -0.351562 15.703125 0.5 12.234375 0.5 C 8.765625 0.5 6.128906 -0.351562 4.328125 -2.0625 C 2.535156 -3.78125 1.640625 -6.304688 1.640625 -9.640625 L 1.640625 -27.140625 L 7.828125 -27.140625 L 7.828125 -11.453125 C 7.828125 -9.253906 8.171875 -7.726562 8.859375 -6.875 C 9.554688 -6.019531 10.679688 -5.59375 12.234375 -5.59375 C 13.796875 -5.59375 14.921875 -6.019531 15.609375 -6.875 C 16.296875 -7.726562 16.640625 -9.253906 16.640625 -11.453125 L 16.640625 -27.140625 Z M 22.828125 -27.140625 "/></g></g></g><g fill="#2f4faa" fill-opacity="1"><g transform="translate(184.330243, 112.134769)"><g><path d="M 8.15625 -27.140625 L 8.15625 0 L 1.96875 0 L 1.96875 -27.140625 Z M 8.15625 -27.140625 "/></g></g></g><g fill="#2f4faa" fill-opacity="1"><g transform="translate(196.137441, 112.134769)"><g><path d="M 1.96875 -27.140625 L 9.828125 -27.140625 C 13.597656 -27.140625 16.820312 -25.847656 19.5 -23.265625 C 22.175781 -20.691406 23.515625 -17.460938 23.515625 -13.578125 C 23.515625 -9.679688 22.179688 -6.441406 19.515625 -3.859375 C 16.859375 -1.285156 13.628906 0 9.828125 0 L 1.96875 0 Z M 8.15625 -5.53125 L 9.109375 -5.53125 C 11.367188 -5.53125 13.21875 -6.289062 14.65625 -7.8125 C 16.09375 -9.332031 16.820312 -11.242188 16.84375 -13.546875 C 16.84375 -15.847656 16.125 -17.765625 14.6875 -19.296875 C 13.25 -20.835938 11.390625 -21.609375 9.109375 -21.609375 L 8.15625 -21.609375 Z M 8.15625 -5.53125 "/></g></g></g><g fill="#2f4faa" fill-opacity="1"><g transform="translate(222.086168, 112.134769)"><g><path d="M 15.75 -27.140625 L 26.703125 0 L 20.0625 0 L 18.0625 -5.421875 L 7.734375 -5.421875 L 5.71875 0 L -0.921875 0 L 10.03125 -27.140625 Z M 15.953125 -10.859375 L 12.921875 -18.75 L 12.859375 -18.75 L 9.828125 -10.859375 Z M 15.953125 -10.859375 "/></g></g></g><g fill="#2f4faa" fill-opacity="1"><g transform="translate(249.54771, 112.134769)"><g><path d="M 8.15625 -16.84375 L 8.15625 0 L 1.96875 0 L 1.96875 -27.140625 L 8.15625 -27.140625 L 18.9375 -10.296875 L 19.015625 -10.296875 L 19.015625 -27.140625 L 25.1875 -27.140625 L 25.1875 0 L 19.015625 0 L 8.21875 -16.84375 Z M 8.15625 -16.84375 "/></g></g></g><g fill="#2f4faa" fill-opacity="1"><g transform="translate(278.390523, 112.134769)"><g><path d="M 16.40625 -5.59375 C 17.351562 -5.59375 18.269531 -5.734375 19.15625 -6.015625 C 20.039062 -6.304688 20.691406 -6.582031 21.109375 -6.84375 L 21.734375 -7.265625 L 24.375 -2 C 24.28125 -1.9375 24.15625 -1.847656 24 -1.734375 C 23.851562 -1.628906 23.5 -1.425781 22.9375 -1.125 C 22.382812 -0.832031 21.785156 -0.578125 21.140625 -0.359375 C 20.503906 -0.140625 19.671875 0.0546875 18.640625 0.234375 C 17.617188 0.410156 16.554688 0.5 15.453125 0.5 C 12.929688 0.5 10.539062 -0.117188 8.28125 -1.359375 C 6.03125 -2.597656 4.210938 -4.300781 2.828125 -6.46875 C 1.441406 -8.644531 0.75 -10.992188 0.75 -13.515625 C 0.75 -15.421875 1.15625 -17.25 1.96875 -19 C 2.78125 -20.757812 3.859375 -22.265625 5.203125 -23.515625 C 6.554688 -24.765625 8.128906 -25.757812 9.921875 -26.5 C 11.722656 -27.25 13.566406 -27.625 15.453125 -27.625 C 17.210938 -27.625 18.832031 -27.414062 20.3125 -27 C 21.789062 -26.582031 22.835938 -26.164062 23.453125 -25.75 L 24.375 -25.125 L 21.734375 -19.859375 C 21.585938 -19.992188 21.359375 -20.15625 21.046875 -20.34375 C 20.742188 -20.53125 20.128906 -20.773438 19.203125 -21.078125 C 18.285156 -21.390625 17.351562 -21.546875 16.40625 -21.546875 C 14.914062 -21.546875 13.578125 -21.300781 12.390625 -20.8125 C 11.210938 -20.332031 10.273438 -19.695312 9.578125 -18.90625 C 8.890625 -18.125 8.363281 -17.273438 8 -16.359375 C 7.644531 -15.453125 7.46875 -14.523438 7.46875 -13.578125 C 7.46875 -11.515625 8.238281 -9.664062 9.78125 -8.03125 C 11.332031 -6.40625 13.539062 -5.59375 16.40625 -5.59375 Z M 16.40625 -5.59375 "/></g></g></g><g fill="#2f4faa" fill-opacity="1"><g transform="translate(304.83256, 112.134769)"><g><path d="M 17.5 -27.140625 L 17.5 -21.703125 L 8.15625 -21.703125 L 8.15625 -16.3125 L 17.109375 -16.3125 L 17.109375 -10.890625 L 8.15625 -10.890625 L 8.15625 -5.421875 L 17.5 -5.421875 L 17.5 0 L 1.96875 0 L 1.96875 -27.140625 Z M 17.5 -27.140625 "/></g></g></g><g fill="#2f4faa" fill-opacity="1"><g transform="translate(325.585096, 112.134769)"><g><path d="M 11.96875 -27.625 C 13.4375 -27.625 14.875 -27.410156 16.28125 -26.984375 C 17.6875 -26.554688 18.726562 -26.132812 19.40625 -25.71875 L 20.390625 -25.0625 L 17.890625 -20.125 C 17.691406 -20.257812 17.414062 -20.429688 17.0625 -20.640625 C 16.71875 -20.847656 16.0625 -21.125 15.09375 -21.46875 C 14.132812 -21.820312 13.238281 -22 12.40625 -22 C 11.375 -22 10.578125 -21.78125 10.015625 -21.34375 C 9.453125 -20.90625 9.171875 -20.3125 9.171875 -19.5625 C 9.171875 -19.195312 9.300781 -18.851562 9.5625 -18.53125 C 9.832031 -18.21875 10.285156 -17.878906 10.921875 -17.515625 C 11.554688 -17.148438 12.113281 -16.859375 12.59375 -16.640625 C 13.082031 -16.421875 13.828125 -16.09375 14.828125 -15.65625 C 16.585938 -14.90625 18.085938 -13.890625 19.328125 -12.609375 C 20.566406 -11.328125 21.1875 -9.875 21.1875 -8.25 C 21.1875 -6.695312 20.90625 -5.335938 20.34375 -4.171875 C 19.78125 -3.015625 19.007812 -2.101562 18.03125 -1.4375 C 17.0625 -0.78125 15.984375 -0.296875 14.796875 0.015625 C 13.617188 0.335938 12.335938 0.5 10.953125 0.5 C 9.765625 0.5 8.597656 0.375 7.453125 0.125 C 6.316406 -0.113281 5.363281 -0.410156 4.59375 -0.765625 C 3.832031 -1.128906 3.144531 -1.488281 2.53125 -1.84375 C 1.914062 -2.195312 1.46875 -2.492188 1.1875 -2.734375 L 0.75 -3.09375 L 3.84375 -8.28125 C 4.113281 -8.0625 4.476562 -7.78125 4.9375 -7.4375 C 5.394531 -7.101562 6.207031 -6.648438 7.375 -6.078125 C 8.550781 -5.515625 9.585938 -5.234375 10.484375 -5.234375 C 13.097656 -5.234375 14.40625 -6.117188 14.40625 -7.890625 C 14.40625 -8.265625 14.3125 -8.609375 14.125 -8.921875 C 13.9375 -9.242188 13.609375 -9.5625 13.140625 -9.875 C 12.671875 -10.195312 12.253906 -10.453125 11.890625 -10.640625 C 11.523438 -10.828125 10.929688 -11.113281 10.109375 -11.5 C 9.285156 -11.882812 8.675781 -12.171875 8.28125 -12.359375 C 6.644531 -13.171875 5.375 -14.1875 4.46875 -15.40625 C 3.570312 -16.625 3.125 -17.9375 3.125 -19.34375 C 3.125 -21.769531 4.019531 -23.753906 5.8125 -25.296875 C 7.613281 -26.847656 9.664062 -27.625 11.96875 -27.625 Z M 11.96875 -27.625 "/></g></g></g><g clip-path="url(#id1)"><g clip-path="url(#id2)"><g clip-path="url(#id3)"><path fill="url(#id4)" d="M 126.515625 6.246094 L 10.242188 6.246094 L 10.242188 123.328125 L 126.515625 123.328125 Z M 126.515625 6.246094 " fill-rule="nonzero"/></g></g></g></svg>